<svg id="svg" version="1.1" xmlns="http://www.w3.org/2000/svg" xmlns:xlink="http://www.w3.org/1999/xlink" width="400" height="566.0678642714571" viewBox="0, 0, 400,566.0678642714571"><g id="svgg"><path id="path0" d="M171.923 61.611 L 171.923 106.730 147.273 133.671 C 133.716 148.489,122.308 160.938,121.924 161.337 L 121.224 162.062 98.207 157.519 C 84.401 154.795,75.057 153.067,74.857 153.201 C 74.673 153.325,65.959 163.770,55.492 176.411 L 36.460 199.396 36.460 260.177 L 36.460 320.958 31.138 320.958 L 25.815 320.958 25.815 360.213 L 25.815 399.468 31.133 399.468 L 36.451 399.468 36.526 435.063 C 36.590 465.091,36.661 470.818,36.981 471.677 C 39.227 477.704,48.490 477.996,51.207 472.125 C 51.761 470.929,51.763 470.799,51.834 434.695 L 51.905 398.465 53.431 397.893 C 58.459 396.009,61.920 390.988,62.803 384.297 C 63.434 379.510,63.034 335.840,62.335 333.357 C 60.759 327.753,57.869 324.208,53.494 322.512 L 51.896 321.892 51.896 262.077 C 51.896 214.402,51.964 202.262,52.229 202.262 C 52.886 202.263,110.978 213.351,111.132 213.506 C 111.219 213.592,111.000 215.484,110.646 217.709 L 110.001 221.754 123.384 231.768 C 130.745 237.276,136.744 241.867,136.714 241.969 C 136.684 242.071,124.208 253.568,108.989 267.518 L 81.318 292.881 103.533 293.014 L 125.749 293.147 125.817 307.053 L 125.886 320.958 120.960 320.958 L 116.035 320.958 116.035 360.213 L 116.035 399.468 120.954 399.468 L 125.874 399.468 125.944 424.285 C 126.012 448.220,126.033 449.139,126.530 450.141 C 129.433 455.991,138.804 455.373,140.634 449.212 C 141.000 447.981,141.051 444.774,141.051 423.291 L 141.051 398.774 142.900 398.179 C 148.002 396.535,151.512 392.261,152.766 386.161 C 153.567 382.268,153.570 338.166,152.769 334.286 C 151.461 327.945,146.995 322.812,141.964 321.868 L 141.051 321.697 141.051 307.356 L 141.051 293.014 143.414 293.014 L 145.778 293.014 165.227 276.381 C 175.924 267.232,184.781 259.747,184.909 259.747 C 185.037 259.747,189.682 264.180,195.232 269.598 C 206.161 280.267,206.559 280.577,211.510 282.279 L 212.908 282.760 212.907 301.925 L 212.906 321.091 211.243 321.951 C 206.465 324.424,203.543 329.263,202.812 335.918 C 202.434 339.356,202.428 380.605,202.805 384.276 C 203.492 390.968,206.448 395.998,211.110 398.407 L 212.906 399.335 212.907 465.887 C 212.907 525.378,212.951 532.569,213.321 533.654 C 215.343 539.589,224.356 540.174,227.356 534.565 L 227.944 533.466 228.077 466.482 L 228.210 399.499 230.206 398.507 C 236.672 395.296,238.733 390.443,238.923 377.977 L 239.042 370.193 233.176 370.193 L 227.310 370.193 227.228 377.578 C 227.147 384.845,227.135 384.985,226.480 386.292 C 224.408 390.432,217.964 390.453,215.757 386.327 L 215.170 385.230 215.170 360.213 L 215.170 335.196 215.757 334.099 C 217.980 329.943,224.320 329.959,226.466 334.126 C 227.126 335.407,227.148 335.620,227.231 341.376 L 227.315 347.305 233.183 347.305 L 239.050 347.305 238.921 340.985 C 238.698 330.004,236.257 324.742,230.007 321.767 L 228.077 320.848 228.077 302.170 L 228.077 283.492 229.075 283.310 C 233.704 282.467,240.554 278.349,245.803 273.253 L 249.024 270.126 252.856 270.124 C 269.867 270.115,283.298 263.898,296.654 249.852 L 298.298 248.123 320.207 252.211 C 332.257 254.459,342.265 256.352,342.448 256.417 C 342.712 256.512,342.781 263.220,342.781 288.747 L 342.781 320.958 339.721 320.958 L 336.660 320.958 336.660 360.213 L 336.660 399.468 339.721 399.468 L 342.781 399.468 342.784 418.164 L 342.786 436.860 343.407 438.190 C 346.015 443.778,354.653 443.697,357.262 438.060 C 357.805 436.888,357.821 436.418,357.951 418.115 L 358.084 399.370 359.984 399.050 C 367.071 397.856,371.386 393.838,373.194 386.751 C 374.046 383.411,374.130 337.741,373.291 334.132 C 371.586 326.798,367.080 322.395,360.213 321.355 C 359.627 321.266,358.879 321.138,358.550 321.071 L 357.951 320.948 357.951 284.547 L 357.951 248.146 369.264 230.594 C 375.486 220.941,380.486 213.013,380.375 212.977 C 380.092 212.885,305.596 198.270,305.413 198.270 C 305.330 198.270,305.231 189.258,305.193 178.244 C 305.155 167.229,305.035 158.037,304.927 157.818 C 304.780 157.519,311.203 151.806,330.512 135.063 C 344.691 122.768,356.216 112.628,356.124 112.530 C 356.000 112.399,316.912 96.690,303.884 91.536 L 302.644 91.045 290.710 101.575 L 278.776 112.104 278.708 85.589 L 278.640 59.074 277.111 58.386 C 276.270 58.007,273.823 57.052,271.672 56.263 C 269.521 55.474,267.156 54.589,266.416 54.297 L 265.070 53.767 265.070 86.766 L 265.070 119.764 278.244 140.914 L 291.417 162.064 291.417 178.703 C 291.417 194.375,291.390 195.342,290.951 195.338 C 290.695 195.336,281.106 193.487,269.642 191.230 L 248.797 187.126 239.379 194.627 L 229.961 202.129 230.017 218.761 L 230.073 235.394 236.175 236.529 C 242.789 237.759,242.794 237.760,242.033 238.308 C 237.811 241.351,231.542 246.786,230.579 248.237 C 226.950 253.705,227.495 260.385,231.974 265.343 L 232.986 266.463 232.230 267.066 C 228.728 269.858,222.577 271.268,218.299 270.259 C 214.443 269.350,214.095 269.078,203.897 259.035 L 194.486 249.767 198.374 230.662 C 202.377 210.994,202.546 209.852,201.854 207.195 C 199.753 199.127,190.575 195.505,183.234 199.847 C 182.502 200.280,174.657 207.285,165.802 215.413 C 156.946 223.542,149.671 230.106,149.635 230.000 C 149.598 229.894,153.831 220.106,159.040 208.250 C 166.208 191.935,168.546 186.355,168.656 185.303 C 169.314 179.038,161.670 175.390,157.270 179.870 C 156.150 181.010,155.328 182.768,146.520 202.861 C 141.274 214.827,136.877 224.617,136.749 224.617 C 136.174 224.617,124.818 215.798,124.835 215.365 C 124.845 215.111,126.491 204.880,128.494 192.630 L 132.136 170.356 158.749 141.293 L 185.363 112.231 185.496 73.205 L 185.629 34.179 205.456 36.083 C 216.361 37.131,225.310 37.966,225.344 37.940 C 225.377 37.913,213.760 33.237,199.529 27.548 C 185.297 21.859,173.263 17.044,172.788 16.849 L 171.923 16.493 171.923 61.611 M319.627 112.147 C 325.409 114.866,330.087 117.183,330.023 117.295 C 329.786 117.708,297.767 145.445,297.458 145.504 C 297.112 145.570,284.653 125.654,284.768 125.216 C 284.806 125.070,289.682 120.680,295.604 115.461 L 306.370 105.973 307.743 106.588 C 308.497 106.926,313.846 109.428,319.627 112.147 M99.442 171.657 C 109.158 173.560,117.165 175.116,117.236 175.116 C 117.530 175.116,113.828 199.445,113.474 199.843 C 113.304 200.034,63.061 189.659,63.135 189.449 C 63.283 189.032,81.314 168.225,81.540 168.212 C 81.670 168.204,89.726 169.754,99.442 171.657 M306.188 212.251 C 335.023 217.894,358.824 222.596,359.078 222.699 C 359.528 222.883,346.393 242.182,345.397 242.800 C 345.142 242.959,253.232 226.053,244.245 224.194 L 243.513 224.043 243.516 216.413 L 243.519 208.782 247.956 205.246 C 251.667 202.289,252.506 201.732,253.076 201.850 C 253.452 201.927,277.352 206.608,306.188 212.251 M184.829 229.038 C 182.208 241.939,181.666 244.264,181.163 244.761 C 180.838 245.081,171.594 253.015,160.621 262.392 L 140.669 279.441 128.441 279.441 C 121.715 279.441,116.300 279.351,116.407 279.242 C 117.293 278.333,187.775 213.792,187.831 213.838 C 187.872 213.871,186.521 220.711,184.829 229.038 M270.839 242.989 C 276.375 244.019,281.084 244.925,281.304 245.003 C 283.088 245.637,272.395 252.464,266.693 254.333 C 260.235 256.448,245.299 257.342,242.504 255.781 C 242.201 255.611,260.049 241.152,260.592 241.126 C 260.691 241.122,265.302 241.960,270.839 242.989 M173.253 320.305 C 165.220 322.017,160.945 327.249,159.926 336.614 C 158.947 345.615,162.062 352.863,170.295 360.738 C 182.377 372.293,183.615 374.096,183.844 380.465 C 184.070 386.722,182.222 389.358,177.614 389.353 C 172.999 389.348,171.447 387.175,171.200 380.373 L 171.053 376.314 165.367 376.314 L 159.681 376.314 159.681 380.390 C 159.681 394.037,165.448 400.412,177.778 400.393 C 188.946 400.376,194.891 395.002,196.172 383.766 C 197.409 372.921,194.065 365.890,182.701 355.446 C 174.031 347.476,172.354 344.761,172.334 338.656 C 172.315 333.143,173.972 331.062,178.368 331.077 C 182.690 331.092,184.187 333.097,184.377 339.122 L 184.492 342.781 190.316 342.781 L 196.141 342.781 196.136 340.053 C 196.107 325.204,187.027 317.368,173.253 320.305 M259.481 320.277 C 251.625 321.933,246.996 327.252,245.923 335.855 C 245.538 338.947,245.544 381.201,245.930 384.431 C 247.197 395.027,253.399 400.381,264.405 400.381 C 275.143 400.381,281.199 395.457,282.780 385.436 C 283.524 380.727,283.223 335.655,282.429 332.801 C 280.624 326.313,276.618 322.184,270.526 320.533 C 268.340 319.941,261.795 319.789,259.481 320.277 M80.639 321.176 C 80.639 321.491,68.162 398.153,67.994 398.869 L 67.854 399.468 73.569 399.468 L 79.284 399.468 79.444 398.603 C 79.532 398.127,80.047 394.684,80.589 390.951 L 81.574 384.165 88.625 384.165 L 95.675 384.165 96.789 391.750 C 97.402 395.921,97.911 399.365,97.921 399.401 C 97.930 399.438,100.701 399.468,104.080 399.468 L 110.222 399.468 110.074 398.736 C 109.993 398.333,107.168 380.998,103.796 360.213 C 100.424 339.428,97.597 322.092,97.514 321.690 L 97.363 320.958 89.001 320.958 C 84.402 320.958,80.639 321.056,80.639 321.176 M291.417 360.193 L 291.417 399.468 297.671 399.468 L 303.925 399.468 303.925 382.701 L 303.925 365.935 307.186 365.936 C 310.978 365.938,312.107 366.190,313.394 367.319 C 315.580 369.239,315.668 369.843,315.889 384.431 C 316.038 394.271,316.161 397.195,316.467 398.137 L 316.856 399.335 323.184 399.406 C 326.827 399.447,329.450 399.377,329.366 399.241 C 328.482 397.812,328.323 395.740,328.138 383.234 C 327.879 365.829,326.986 362.785,321.350 360.098 L 319.815 359.367 321.119 358.738 C 325.514 356.619,327.679 351.898,328.033 343.661 C 328.607 330.318,325.416 324.089,316.783 321.700 C 314.830 321.160,313.998 321.119,303.061 321.022 L 291.417 320.919 291.417 360.193 M267.332 331.574 C 268.675 332.194,269.406 332.988,270.180 334.667 L 270.792 335.995 270.870 358.875 C 270.951 382.930,270.888 384.539,269.783 386.538 C 268.016 389.733,262.649 390.394,259.997 387.742 C 258.053 385.797,258.131 387.030,258.211 359.662 L 258.283 335.196 258.880 334.081 C 260.319 331.387,264.342 330.194,267.332 331.574 M46.706 332.434 C 48.135 332.831,49.879 334.606,50.339 336.132 C 50.629 337.094,50.699 341.754,50.699 360.213 C 50.699 385.701,50.756 384.855,48.896 386.615 C 47.387 388.043,47.016 388.136,42.382 388.244 L 38.057 388.345 38.057 360.240 L 38.057 332.136 41.850 332.137 C 43.935 332.138,46.121 332.272,46.706 332.434 M138.124 332.934 C 139.065 333.457,139.492 333.941,140.120 335.196 L 140.918 336.793 140.918 360.213 L 140.918 383.633 140.167 385.163 C 138.909 387.725,137.923 388.135,132.735 388.251 L 128.543 388.346 128.543 360.217 L 128.543 332.089 132.735 332.179 C 136.619 332.262,137.014 332.318,138.124 332.934 M312.539 332.780 C 315.172 334.087,315.715 336.094,315.588 344.062 C 315.445 353.082,314.341 354.473,307.319 354.485 L 303.925 354.491 303.925 343.294 L 303.925 332.096 307.718 332.183 C 310.802 332.253,311.703 332.364,312.539 332.780 M357.552 332.431 C 359.014 332.833,360.678 334.607,361.164 336.283 C 361.480 337.371,361.544 341.446,361.544 360.479 L 361.544 383.367 360.931 384.697 C 359.552 387.690,358.156 388.290,352.580 388.290 L 348.902 388.290 348.902 360.213 L 348.902 332.136 352.695 332.137 C 354.780 332.138,356.966 332.270,357.552 332.431 M91.411 353.959 C 92.813 363.985,94.018 372.458,94.090 372.788 L 94.222 373.387 88.616 373.387 L 83.010 373.387 83.162 372.522 C 83.316 371.646,88.338 335.421,88.373 334.930 C 88.470 333.596,89.235 338.385,91.411 353.959 " stroke="none" fill="#fbfbfb" fill-rule="evenodd"></path><path id="path1" d="M168.862 11.003 C 165.779 12.025,163.573 13.943,162.232 16.766 L 161.411 18.496 161.277 63.013 L 161.144 107.529 139.344 131.343 C 127.354 144.440,117.413 155.156,117.255 155.156 C 117.096 155.156,107.864 153.359,96.740 151.164 C 75.142 146.903,74.175 146.770,71.491 147.693 C 68.764 148.631,68.322 149.119,48.086 173.520 C 25.832 200.354,27.375 198.405,26.635 200.601 L 26.081 202.245 26.081 258.640 L 26.081 315.034 24.496 315.214 C 21.082 315.600,17.793 318.001,16.263 321.224 L 15.569 322.688 15.569 364.870 L 15.569 407.053 16.270 408.548 C 17.883 411.987,21.766 414.637,25.192 414.637 L 26.069 414.637 26.141 446.108 L 26.214 477.578 26.835 479.308 C 32.895 496.199,57.357 495.526,61.751 478.347 C 62.258 476.362,62.275 475.275,62.275 444.692 L 62.275 413.089 63.297 413.582 C 65.353 414.576,66.471 414.677,74.400 414.590 C 83.678 414.487,85.800 413.782,88.094 410.038 L 88.547 409.298 89.262 410.235 C 90.466 411.814,91.607 412.753,93.409 413.648 L 95.134 414.504 104.586 414.551 C 109.785 414.577,114.303 414.607,114.626 414.618 L 115.214 414.637 115.295 434.797 L 115.376 454.957 115.995 456.820 C 121.703 473.994,146.620 473.433,151.029 456.032 C 151.371 454.681,151.430 451.188,151.430 432.448 L 151.430 410.450 152.531 409.722 C 153.136 409.322,154.151 408.514,154.788 407.927 L 155.945 406.861 157.114 408.064 C 166.978 418.213,187.525 418.413,198.154 408.464 L 199.502 407.202 200.877 408.595 L 202.253 409.987 202.325 474.388 C 202.407 546.712,202.196 539.662,204.419 544.204 C 210.959 557.561,231.852 556.572,237.400 542.643 C 238.750 539.254,238.703 541.693,238.713 473.653 C 238.718 438.706,238.815 410.113,238.927 410.113 C 239.039 410.113,239.901 409.398,240.843 408.525 L 242.554 406.936 244.164 408.473 C 253.136 417.035,270.886 418.290,281.416 411.107 L 282.726 410.213 283.626 411.209 C 286.434 414.317,288.033 414.686,298.272 414.585 L 306.489 414.504 308.425 413.543 L 310.361 412.582 312.234 413.543 L 314.107 414.504 323.109 414.504 L 332.110 414.504 332.192 428.876 L 332.274 443.247 333.012 445.433 C 338.641 462.115,363.454 461.294,367.805 444.282 C 368.297 442.360,368.330 441.288,368.330 427.289 L 368.330 412.348 369.586 411.738 C 377.246 408.017,382.303 400.856,383.876 391.503 C 384.395 388.419,384.515 342.783,384.014 339.179 C 382.685 329.628,377.584 321.981,370.076 318.285 L 368.330 317.425 368.330 286.821 L 368.330 256.217 379.153 239.435 C 385.106 230.205,390.182 222.107,390.433 221.440 C 392.336 216.388,389.984 210.392,385.249 208.225 C 384.093 207.696,317.341 194.278,315.865 194.278 C 315.739 194.278,315.635 188.063,315.635 180.466 L 315.635 166.654 339.526 145.913 C 352.666 134.505,363.919 124.600,364.534 123.902 C 368.689 119.181,367.169 110.853,361.637 108.030 C 359.143 106.758,305.746 85.614,304.371 85.354 C 300.572 84.637,297.989 85.733,292.945 90.201 L 289.311 93.421 289.233 77.382 L 289.155 61.344 288.313 59.566 C 286.738 56.241,284.417 54.502,278.510 52.218 C 269.840 48.865,267.543 48.103,265.714 47.974 C 261.382 47.666,257.384 50.028,255.525 53.993 L 254.824 55.489 254.753 91.101 L 254.683 126.714 255.296 128.227 C 255.634 129.059,261.564 138.814,268.474 149.904 L 281.038 170.067 281.038 178.742 L 281.038 187.416 280.439 187.279 C 280.110 187.203,272.921 185.789,264.464 184.136 L 249.088 181.131 247.180 181.459 C 244.367 181.941,243.499 182.522,232.714 191.135 C 222.196 199.535,220.987 200.668,220.035 203.021 L 219.428 204.524 219.428 223.420 C 219.428 244.270,219.357 243.318,221.118 245.995 C 221.769 246.985,221.775 247.034,221.324 247.725 C 219.311 250.806,217.945 255.242,217.724 259.419 L 217.565 262.417 211.778 256.624 L 205.992 250.831 209.340 234.464 C 212.541 218.815,212.688 217.957,212.683 214.904 C 212.657 198.138,195.485 187.256,180.079 194.241 L 178.408 194.999 178.789 193.640 C 182.787 179.364,167.110 167.170,153.706 174.132 C 149.003 176.575,147.683 178.509,142.359 190.752 C 140.688 194.595,139.293 197.589,139.258 197.405 C 139.047 196.288,142.054 179.873,142.573 179.311 C 171.098 148.439,194.176 122.884,194.910 121.357 L 195.742 119.627 195.812 85.096 L 195.883 50.566 196.648 50.566 C 197.069 50.566,203.684 51.174,211.348 51.917 C 226.749 53.411,227.721 53.427,230.312 52.214 C 237.491 48.855,238.415 38.412,231.914 34.106 C 231.248 33.665,218.047 28.242,202.578 22.055 L 174.451 10.806 172.189 10.728 C 170.814 10.681,169.509 10.789,168.862 11.003 M199.203 27.267 C 213.986 33.188,225.759 38.038,225.366 38.045 C 224.973 38.052,215.936 37.219,205.285 36.194 C 194.633 35.170,185.823 34.331,185.707 34.331 C 185.591 34.331,185.496 51.859,185.496 73.282 L 185.496 112.233 158.906 141.269 C 140.991 160.832,132.265 170.548,132.160 171.048 C 131.970 171.952,125.152 214.082,125.034 215.081 C 124.946 215.824,136.390 224.856,136.845 224.402 C 136.946 224.301,141.276 214.544,146.467 202.720 C 151.657 190.895,156.219 180.808,156.604 180.304 C 160.191 175.600,167.844 177.787,168.848 183.802 C 169.135 185.521,168.964 185.954,159.223 208.111 C 154.170 219.605,149.972 229.236,149.893 229.515 C 149.815 229.793,157.084 223.298,166.048 215.081 C 183.984 198.639,183.983 198.639,188.090 197.952 C 195.408 196.729,202.359 202.720,202.323 210.222 C 202.316 211.747,201.401 216.706,198.585 230.472 C 196.534 240.499,194.815 248.966,194.766 249.288 C 194.662 249.971,212.864 267.958,214.504 268.794 C 220.014 271.599,227.423 270.669,232.842 266.490 C 232.902 266.444,232.345 265.766,231.605 264.984 C 226.879 259.987,226.896 251.929,231.644 246.747 C 232.244 246.092,234.830 243.891,237.392 241.856 C 239.953 239.821,242.081 238.069,242.119 237.963 C 242.158 237.857,240.721 237.500,238.926 237.171 C 237.131 236.842,234.315 236.320,232.668 236.012 L 229.674 235.451 229.674 218.852 L 229.674 202.253 238.835 194.954 C 243.874 190.939,248.218 187.516,248.488 187.348 C 248.888 187.098,284.649 193.780,290.818 195.257 L 291.417 195.400 291.417 178.841 L 291.417 162.282 278.244 141.129 L 265.070 119.977 265.070 86.868 C 265.070 68.658,265.137 53.759,265.220 53.759 C 265.515 53.759,275.614 57.585,277.244 58.315 L 278.906 59.058 278.974 85.401 L 279.042 111.745 290.619 101.496 C 296.986 95.860,302.329 91.190,302.491 91.119 C 302.916 90.933,356.400 112.304,356.295 112.618 C 356.247 112.761,344.738 122.841,330.718 135.016 L 305.227 157.152 305.248 177.505 C 305.260 188.698,305.356 197.932,305.462 198.023 C 305.568 198.115,322.362 201.459,342.781 205.454 C 363.200 209.449,380.063 212.776,380.255 212.847 C 380.754 213.032,381.352 212.056,369.162 230.959 L 357.951 248.344 357.951 284.625 L 357.951 320.906 359.528 321.089 C 366.350 321.881,371.156 326.101,373.170 333.067 L 373.786 335.196 373.786 360.213 L 373.786 385.230 373.170 387.359 C 371.234 394.053,367.096 397.870,360.419 399.118 L 357.964 399.576 357.891 418.484 L 357.818 437.392 357.110 438.589 C 353.905 444.009,346.221 443.805,343.234 438.221 C 342.648 437.126,342.648 437.125,342.575 418.297 L 342.501 399.468 339.581 399.468 L 336.660 399.468 336.660 360.080 L 336.660 320.692 339.587 320.692 L 342.515 320.692 342.515 288.641 C 342.515 258.345,342.489 256.582,342.049 256.453 C 341.793 256.379,331.850 254.506,319.953 252.292 L 298.322 248.266 295.740 250.983 C 283.575 263.776,270.597 269.707,253.440 270.313 L 248.862 270.474 245.984 273.294 C 241.309 277.876,236.082 281.191,230.872 282.878 L 228.476 283.654 228.408 302.273 L 228.340 320.892 229.206 321.235 C 232.365 322.484,235.476 325.504,237.011 328.809 C 238.635 332.307,238.780 333.215,238.916 340.719 L 239.041 347.572 233.189 347.572 L 227.337 347.572 227.208 341.783 C 227.130 338.310,226.946 335.569,226.749 334.931 C 225.309 330.283,218.084 329.794,215.921 334.198 L 215.170 335.729 215.170 360.213 L 215.170 384.697 215.968 386.290 C 217.598 389.542,222.809 390.317,225.355 387.686 C 227.013 385.973,227.107 385.455,227.226 377.312 L 227.334 369.927 233.161 369.927 L 238.989 369.927 238.989 377.222 C 238.989 390.124,236.939 395.189,230.350 398.572 L 228.346 399.601 228.344 465.753 C 228.343 524.273,228.296 532.064,227.937 533.273 C 225.918 540.074,216.207 540.524,213.236 533.956 C 212.802 532.996,212.770 528.888,212.705 466.134 L 212.635 399.335 211.108 398.547 C 207.430 396.651,204.247 392.252,203.139 387.531 C 202.315 384.022,202.414 335.590,203.251 332.452 C 204.514 327.718,207.375 323.813,210.923 321.979 L 212.639 321.091 212.640 301.905 L 212.641 282.719 211.510 282.385 C 210.888 282.201,209.250 281.511,207.869 280.851 L 205.359 279.652 195.269 269.766 C 189.720 264.329,185.101 259.851,185.005 259.815 C 184.909 259.780,176.028 267.288,165.269 276.500 L 145.709 293.251 143.380 293.265 L 141.051 293.280 141.051 307.364 L 141.051 321.448 142.448 321.901 C 148.487 323.859,152.068 328.517,153.174 335.853 C 153.644 338.971,153.741 380.011,153.288 383.773 C 152.383 391.274,148.665 396.445,142.765 398.408 L 141.051 398.979 141.051 423.922 L 141.051 448.864 140.362 450.247 C 137.622 455.747,129.139 455.661,126.379 450.105 L 125.749 448.836 125.675 424.152 L 125.602 399.468 120.817 399.468 L 116.033 399.468 116.100 360.146 L 116.168 320.825 120.892 320.752 L 125.615 320.680 125.615 306.981 L 125.615 293.283 103.247 293.215 L 80.878 293.147 108.714 267.632 C 124.024 253.599,136.515 242.019,136.472 241.898 C 136.429 241.777,130.466 237.235,123.220 231.803 C 115.975 226.372,110.014 221.837,109.975 221.726 C 109.935 221.616,110.192 219.736,110.545 217.549 C 110.898 215.362,111.170 213.557,111.149 213.538 C 111.128 213.519,98.057 211.027,82.102 208.001 C 66.148 204.975,52.824 202.433,52.495 202.352 L 51.896 202.204 51.896 261.989 C 51.896 318.691,51.920 321.781,52.362 321.924 C 58.743 323.993,62.359 329.406,63.094 337.991 C 63.492 342.647,63.267 383.347,62.832 385.363 C 61.344 392.257,58.135 396.352,52.628 398.386 L 51.896 398.656 51.896 434.543 C 51.896 474.575,52.028 471.789,50.023 474.067 C 47.066 477.426,41.132 477.350,38.191 473.914 C 36.365 471.781,36.460 473.940,36.460 434.815 L 36.460 399.468 31.138 399.468 L 25.815 399.468 25.815 360.080 L 25.815 320.692 31.138 320.692 L 36.460 320.692 36.465 259.947 L 36.469 199.202 55.673 176.048 C 70.574 158.082,75.000 152.904,75.429 152.939 C 75.733 152.963,86.076 154.980,98.413 157.421 C 110.751 159.862,121.004 161.798,121.199 161.723 C 121.394 161.648,132.827 149.275,146.605 134.228 L 171.657 106.869 171.657 61.685 C 171.657 25.621,171.724 16.500,171.991 16.500 C 172.174 16.500,184.420 21.345,199.203 27.267 M295.829 115.369 C 290.132 120.407,285.299 124.700,285.088 124.911 C 284.502 125.497,297.129 145.751,297.767 145.247 C 298.485 144.679,328.768 118.398,329.425 117.772 L 330.041 117.186 318.344 111.687 C 311.911 108.662,306.543 106.193,306.417 106.199 C 306.291 106.206,301.526 110.332,295.829 115.369 M309.640 123.806 C 310.303 124.127,310.845 124.474,310.845 124.576 C 310.845 124.723,303.851 130.919,300.432 133.801 L 299.720 134.401 298.999 133.172 C 298.298 131.974,298.292 131.930,298.773 131.458 C 300.057 130.202,308.073 123.235,308.243 123.228 C 308.349 123.224,308.978 123.484,309.640 123.806 M72.554 178.578 C 67.639 184.268,63.585 189.070,63.545 189.249 C 63.478 189.553,113.060 199.966,113.345 199.708 C 113.584 199.492,117.342 175.520,117.162 175.362 C 117.054 175.267,109.122 173.669,99.534 171.811 C 89.947 169.952,81.965 168.388,81.796 168.333 C 81.628 168.279,77.469 172.889,72.554 178.578 M95.542 186.326 C 100.885 187.368,105.304 188.264,105.363 188.318 C 105.472 188.417,104.950 191.879,104.803 192.025 C 104.709 192.119,83.004 187.684,82.862 187.541 C 82.712 187.392,85.265 184.468,85.562 184.448 C 85.709 184.439,90.200 185.284,95.542 186.326 M247.834 205.465 L 243.505 208.916 243.575 216.432 L 243.646 223.947 294.478 233.442 C 322.435 238.664,345.384 242.857,345.475 242.759 C 346.014 242.180,359.318 222.969,359.237 222.887 C 359.082 222.732,253.267 201.995,252.682 202.005 C 252.396 202.009,250.214 203.567,247.834 205.465 M151.943 246.769 L 116.448 279.308 128.477 279.377 L 140.507 279.447 160.939 261.987 C 172.176 252.384,181.456 244.329,181.561 244.086 C 181.855 243.408,187.685 214.476,187.554 214.345 C 187.491 214.282,171.466 228.873,151.943 246.769 M298.800 226.235 C 322.256 230.834,341.443 234.717,341.440 234.864 C 341.436 235.010,341.259 235.360,341.046 235.642 C 340.416 236.474,253.894 220.288,253.893 219.337 C 253.892 218.570,254.903 217.662,255.622 217.783 C 255.915 217.832,275.345 221.636,298.800 226.235 M81.472 223.183 L 99.471 226.588 99.617 227.999 C 100.013 231.839,100.983 232.884,111.377 240.667 C 116.061 244.174,119.995 247.135,120.119 247.247 C 120.243 247.359,109.644 257.269,96.566 269.271 C 81.302 283.278,72.528 291.512,72.063 292.268 C 68.644 297.826,71.179 305.197,77.370 307.696 L 78.909 308.317 97.073 308.395 L 115.236 308.474 115.236 311.766 L 115.236 315.059 113.897 315.346 C 111.365 315.889,108.876 317.528,107.556 319.521 L 106.814 320.641 105.902 319.412 C 102.926 315.401,101.500 315.053,88.446 315.155 L 78.081 315.236 76.051 316.240 C 72.503 317.994,70.850 320.505,70.076 325.317 L 69.626 328.112 68.719 326.730 C 67.346 324.641,65.553 322.636,63.829 321.262 L 62.280 320.027 62.278 269.765 L 62.275 219.503 62.874 219.641 C 63.204 219.717,71.573 221.311,81.472 223.183 M251.420 248.397 L 242.275 255.622 243.360 255.866 C 248.423 257.006,261.548 255.980,267.239 253.998 C 273.435 251.842,282.949 245.519,280.772 245.005 C 280.406 244.918,275.915 244.070,270.792 243.119 C 265.669 242.169,261.272 241.342,261.021 241.282 C 260.728 241.212,257.295 243.756,251.420 248.397 M315.779 266.800 C 323.238 268.191,329.970 269.457,330.739 269.613 L 332.136 269.898 332.135 292.966 L 332.135 316.035 330.932 316.795 C 330.270 317.213,329.294 318.055,328.762 318.666 L 327.795 319.777 324.975 318.362 C 319.246 315.486,315.820 315.040,300.318 315.153 L 288.860 315.236 286.822 316.244 C 285.507 316.894,284.428 317.661,283.778 318.408 L 282.772 319.564 281.620 318.772 C 271.053 311.501,253.136 312.704,244.143 321.288 L 242.511 322.845 240.821 321.236 C 239.891 320.351,239.038 319.627,238.926 319.627 C 238.814 319.627,238.723 314.260,238.723 307.701 L 238.723 295.774 240.903 294.633 C 244.657 292.667,249.104 289.488,252.295 286.487 L 253.493 285.361 256.953 285.206 C 273.138 284.484,289.752 276.946,300.984 265.228 C 302.096 264.068,299.839 263.828,315.779 266.800 M191.682 285.594 C 196.852 290.613,199.173 292.682,200.483 293.435 L 202.262 294.458 202.262 307.101 L 202.262 319.744 200.889 321.135 L 199.515 322.525 197.728 320.877 C 187.246 311.206,166.976 311.829,157.041 322.129 L 156.131 323.072 155.045 322.076 C 154.448 321.528,153.390 320.672,152.695 320.175 L 151.430 319.271 151.437 312.995 L 151.443 306.720 167.870 292.686 C 176.906 284.968,184.380 278.681,184.479 278.714 C 184.579 278.748,187.820 281.844,191.682 285.594 M183.937 320.400 C 191.869 322.436,195.763 328.274,196.070 338.589 L 196.202 343.047 190.317 343.047 L 184.431 343.047 184.426 340.719 C 184.410 333.688,182.852 331.259,178.339 331.229 C 174.648 331.204,172.741 333.052,172.311 337.071 C 171.711 342.677,174.113 347.353,180.717 353.430 C 192.117 363.921,195.031 368.183,196.158 376.015 C 198.440 391.883,189.569 402.225,175.119 400.545 C 164.393 399.298,159.440 392.725,159.420 379.707 L 159.415 376.314 165.403 376.314 L 171.391 376.314 171.397 379.973 C 171.410 386.992,172.818 389.122,177.466 389.151 C 181.695 389.177,183.510 387.265,183.821 382.453 C 184.241 375.978,181.692 371.287,174.035 364.439 C 162.889 354.470,159.853 349.093,159.853 339.321 C 159.853 324.649,169.862 316.786,183.937 320.400 M270.490 320.417 C 277.166 322.124,281.335 326.805,282.785 334.222 C 283.264 336.672,283.356 383.131,282.887 385.779 C 281.160 395.537,274.854 400.590,264.405 400.590 C 254.797 400.590,248.780 396.321,246.357 387.789 C 245.567 385.005,245.301 338.307,246.053 334.295 C 248.163 323.034,258.274 317.292,270.490 320.417 M103.837 359.548 C 107.312 380.845,110.161 398.540,110.168 398.869 L 110.180 399.468 103.925 399.468 C 100.486 399.468,97.671 399.364,97.671 399.238 C 97.671 398.958,95.882 386.374,95.670 385.163 L 95.518 384.298 88.640 384.298 L 81.761 384.298 81.625 384.897 C 81.550 385.226,81.036 388.639,80.481 392.482 L 79.474 399.468 73.669 399.468 C 70.476 399.468,67.864 399.362,67.864 399.233 C 67.864 398.935,80.317 322.408,80.527 321.420 L 80.683 320.685 89.100 320.755 L 97.517 320.825 103.837 359.548 M312.575 320.957 C 324.157 322.032,328.003 327.106,328.008 341.317 C 328.012 351.645,326.440 355.817,321.463 358.691 L 320.185 359.429 321.456 360.012 C 326.995 362.553,327.880 365.511,328.162 382.435 C 328.368 394.848,328.456 396.066,329.346 398.869 L 329.536 399.468 323.118 399.468 C 319.588 399.468,316.700 399.414,316.700 399.348 C 316.700 399.282,316.502 398.533,316.261 397.684 C 315.894 396.396,315.792 394.074,315.642 383.633 C 315.397 366.445,315.146 365.935,306.938 365.935 L 303.925 365.935 303.925 382.701 L 303.925 399.468 297.671 399.468 L 291.417 399.468 291.417 360.080 L 291.417 320.692 300.665 320.701 C 305.752 320.706,311.111 320.821,312.575 320.957 M262.327 331.437 C 260.745 331.880,259.378 333.159,258.752 334.780 C 258.317 335.908,258.283 337.726,258.283 360.346 L 258.283 384.697 258.949 386.014 C 261.117 390.307,267.704 390.396,269.801 386.161 L 270.526 384.697 270.526 360.080 L 270.526 335.462 269.696 333.999 C 268.351 331.627,265.358 330.587,262.327 331.437 M38.323 360.231 L 38.323 388.060 42.669 387.975 C 47.775 387.876,48.641 387.537,49.801 385.181 L 50.432 383.899 50.509 360.878 C 50.609 330.825,51.065 332.420,42.382 332.408 L 38.323 332.402 38.323 360.231 M128.543 360.213 L 128.543 388.024 132.612 388.024 C 138.073 388.024,139.631 387.243,140.515 384.063 C 140.880 382.750,140.880 337.676,140.515 336.363 C 139.623 333.151,138.169 332.412,132.735 332.406 L 128.543 332.402 128.543 360.213 M303.925 343.477 L 303.925 354.553 307.452 354.440 C 314.452 354.217,315.502 352.765,315.502 343.313 C 315.502 333.473,314.730 332.402,307.634 332.402 L 303.925 332.402 303.925 343.477 M349.168 360.213 L 349.168 388.024 353.252 388.024 C 358.285 388.024,359.186 387.690,360.479 385.346 L 361.277 383.899 361.351 361.011 C 361.449 330.836,361.899 332.420,353.227 332.408 L 349.168 332.402 349.168 360.213 M85.880 354.048 C 84.445 364.465,83.277 373.077,83.285 373.187 C 83.313 373.559,93.946 373.426,93.943 373.054 C 93.940 372.541,88.642 335.259,88.561 335.179 C 88.522 335.140,87.315 343.631,85.880 354.048 M231.574 362.741 L 235.263 362.741 235.263 363.528 L 235.263 364.315 230.339 364.393 L 225.415 364.471 225.416 363.437 L 225.416 362.403 226.651 362.572 C 227.330 362.665,229.545 362.741,231.574 362.741 " stroke="none" fill="#343434" fill-rule="evenodd"></path><path id="path2" d="M171.722 61.623 C 171.679 91.196,171.565 106.991,171.392 107.200 C 171.240 107.383,171.298 107.373,171.525 107.176 C 171.878 106.873,171.916 101.524,171.856 61.600 L 171.788 16.367 171.722 61.623 M278.771 85.695 C 278.771 100.259,278.803 106.218,278.842 98.935 C 278.882 91.653,278.882 79.737,278.842 72.455 C 278.803 65.173,278.771 71.131,278.771 85.695 M189.554 197.921 C 189.810 197.988,190.230 197.988,190.486 197.921 C 190.742 197.854,190.532 197.800,190.020 197.800 C 189.508 197.800,189.298 197.854,189.554 197.921 M229.735 218.680 C 229.702 227.783,229.764 235.287,229.874 235.355 C 230.055 235.467,230.052 223.638,229.868 208.117 C 229.829 204.824,229.769 209.577,229.735 218.680 M281.129 245.024 C 281.228 245.122,281.038 245.512,280.708 245.888 L 280.106 246.574 280.830 245.936 C 281.463 245.379,281.600 244.844,281.111 244.844 C 281.022 244.844,281.030 244.925,281.129 245.024 M295.526 251.031 L 294.744 251.896 295.609 251.115 C 296.415 250.386,296.596 250.166,296.390 250.166 C 296.345 250.166,295.955 250.556,295.526 251.031 M293.396 253.160 L 292.615 254.025 293.480 253.244 C 294.286 252.515,294.467 252.295,294.261 252.295 C 294.216 252.295,293.826 252.685,293.396 253.160 M342.515 288.703 L 342.648 321.091 342.716 288.903 C 342.753 271.200,342.693 256.625,342.583 256.515 C 342.472 256.404,342.442 270.889,342.515 288.703 M202.927 258.150 C 203.797 259.029,204.568 259.747,204.641 259.747 C 204.714 259.747,204.063 259.029,203.194 258.150 C 202.325 257.272,201.554 256.554,201.480 256.554 C 201.407 256.554,202.058 257.272,202.927 258.150 M189.488 264.138 C 190.283 264.943,190.993 265.602,191.066 265.602 C 191.140 265.602,190.549 264.943,189.754 264.138 C 188.959 263.333,188.248 262.675,188.175 262.675 C 188.102 262.675,188.693 263.333,189.488 264.138 M251.435 270.319 C 251.914 270.379,252.632 270.377,253.032 270.317 C 253.432 270.256,253.041 270.207,252.162 270.209 C 251.284 270.210,250.957 270.260,251.435 270.319 M246.165 272.987 L 244.711 274.518 246.241 273.063 C 247.663 271.712,247.893 271.457,247.695 271.457 C 247.654 271.457,246.965 272.146,246.165 272.987 M201.730 276.114 C 202.525 276.919,203.235 277.578,203.308 277.578 C 203.382 277.578,202.791 276.919,201.996 276.114 C 201.201 275.309,200.491 274.651,200.417 274.651 C 200.344 274.651,200.935 275.309,201.730 276.114 M81.490 292.535 C 81.315 292.711,81.171 292.950,81.171 293.067 C 81.171 293.184,91.170 293.280,103.391 293.280 L 125.611 293.280 125.683 307.053 L 125.756 320.825 125.752 306.986 L 125.749 293.147 103.562 293.079 C 83.913 293.019,81.412 292.965,81.705 292.613 C 82.099 292.138,81.944 292.082,81.490 292.535 M142.190 293.210 C 142.890 293.265,143.968 293.264,144.586 293.208 C 145.203 293.153,144.631 293.108,143.313 293.108 C 141.996 293.109,141.491 293.155,142.190 293.210 M38.186 360.213 C 38.185 375.729,38.218 382.115,38.257 374.405 C 38.296 366.695,38.296 354.000,38.257 346.195 C 38.218 338.389,38.186 344.697,38.186 360.213 M349.030 360.213 C 349.030 375.729,349.063 382.115,349.102 374.405 C 349.141 366.695,349.141 354.000,349.102 346.195 C 349.063 338.389,349.030 344.697,349.030 360.213 M270.786 360.213 C 270.786 372.655,270.818 377.706,270.858 371.437 C 270.898 365.169,270.898 354.989,270.858 348.816 C 270.818 342.642,270.786 347.771,270.786 360.213 M50.693 360.213 C 50.693 372.362,50.725 377.371,50.765 371.344 C 50.805 365.317,50.805 355.377,50.765 349.255 C 50.725 343.133,50.693 348.064,50.693 360.213 M361.537 360.213 C 361.537 372.069,361.570 376.958,361.610 371.078 C 361.650 365.197,361.650 355.497,361.610 349.521 C 361.570 343.545,361.537 348.357,361.537 360.213 M153.420 360.213 C 153.420 371.923,153.453 376.674,153.493 370.772 C 153.533 364.869,153.533 355.289,153.493 349.481 C 153.453 343.674,153.420 348.503,153.420 360.213 M327.939 345.442 C 327.939 345.955,327.994 346.164,328.061 345.908 C 328.128 345.652,328.128 345.233,328.061 344.977 C 327.994 344.721,327.939 344.930,327.939 345.442 M230.140 347.504 C 231.786 347.551,234.481 347.551,236.128 347.504 C 237.774 347.457,236.427 347.419,233.134 347.419 C 229.840 347.419,228.493 347.457,230.140 347.504 M178.044 351.115 C 178.044 351.160,178.433 351.550,178.909 351.979 L 179.774 352.761 178.992 351.896 C 178.264 351.090,178.044 350.909,178.044 351.115 M184.697 357.236 C 184.697 357.281,185.086 357.671,185.562 358.101 L 186.427 358.882 185.645 358.017 C 184.917 357.211,184.697 357.030,184.697 357.236 M315.755 383.234 C 315.755 388.430,315.791 390.556,315.835 387.957 C 315.878 385.359,315.878 381.108,315.835 378.510 C 315.791 375.912,315.755 378.037,315.755 383.234 M159.518 379.641 C 159.518 381.544,159.561 382.287,159.612 381.293 C 159.663 380.299,159.663 378.742,159.611 377.833 C 159.559 376.924,159.517 377.738,159.518 379.641 M171.228 379.641 C 171.228 381.544,171.271 382.287,171.322 381.293 C 171.373 380.299,171.373 378.742,171.321 377.833 C 171.269 376.924,171.227 377.738,171.228 379.641 M368.848 394.877 L 367.931 395.875 368.929 394.958 C 369.858 394.104,370.049 393.879,369.846 393.879 C 369.801 393.879,369.352 394.328,368.848 394.877 M125.743 423.420 C 125.743 436.667,125.775 442.086,125.815 435.462 C 125.855 428.839,125.855 418.001,125.815 411.377 C 125.775 404.754,125.743 410.173,125.743 423.420 M342.641 417.698 C 342.641 427.798,342.674 431.891,342.714 426.794 C 342.755 421.696,342.755 413.433,342.714 408.430 C 342.674 403.428,342.641 407.598,342.641 417.698 M219.897 538.581 C 220.302 538.642,220.901 538.640,221.228 538.577 C 221.555 538.514,221.224 538.464,220.492 538.466 C 219.760 538.468,219.493 538.520,219.897 538.581 " stroke="none" fill="#9c9c9c" fill-rule="evenodd"></path><path id="path3" d="" stroke="none" fill="#8c8c8c" fill-rule="evenodd"></path><path id="path4" d="M168.791 184.697 C 168.791 185.210,168.846 185.419,168.913 185.163 C 168.980 184.907,168.980 184.488,168.913 184.232 C 168.846 183.975,168.791 184.185,168.791 184.697 M199.867 255.090 C 200.662 255.895,201.372 256.554,201.446 256.554 C 201.519 256.554,200.928 255.895,200.133 255.090 C 199.338 254.285,198.628 253.626,198.554 253.626 C 198.481 253.626,199.072 254.285,199.867 255.090 M250.509 256.484 C 251.356 256.537,252.673 256.537,253.436 256.483 C 254.199 256.430,253.506 256.386,251.896 256.387 C 250.286 256.388,249.662 256.431,250.509 256.484 M211.976 266.933 C 212.697 267.665,213.347 268.263,213.420 268.263 C 213.493 268.263,212.963 267.665,212.242 266.933 C 211.521 266.201,210.872 265.602,210.798 265.602 C 210.725 265.602,211.255 266.201,211.976 266.933 M192.681 267.332 C 193.476 268.137,194.187 268.796,194.260 268.796 C 194.333 268.796,193.742 268.137,192.947 267.332 C 192.152 266.527,191.442 265.868,191.369 265.868 C 191.296 265.868,191.886 266.527,192.681 267.332 M249.305 270.315 C 249.636 270.378,250.115 270.376,250.369 270.309 C 250.623 270.243,250.353 270.191,249.767 270.194 C 249.182 270.196,248.973 270.251,249.305 270.315 M254.095 270.315 C 254.426 270.378,254.905 270.376,255.159 270.309 C 255.414 270.243,255.143 270.191,254.558 270.194 C 253.972 270.196,253.764 270.251,254.095 270.315 M220.958 270.583 C 221.361 270.644,222.019 270.644,222.422 270.583 C 222.824 270.522,222.495 270.472,221.690 270.472 C 220.885 270.472,220.556 270.522,220.958 270.583 M203.593 277.928 C 203.593 277.973,203.982 278.363,204.458 278.793 L 205.323 279.574 204.541 278.709 C 203.812 277.903,203.593 277.722,203.593 277.928 M212.768 301.929 C 212.768 312.468,212.801 316.741,212.841 311.424 C 212.881 306.107,212.881 297.485,212.841 292.263 C 212.801 287.040,212.768 291.391,212.768 301.929 M228.200 283.766 C 228.130 283.949,228.103 292.422,228.141 302.595 L 228.210 321.091 228.343 302.262 C 228.417 291.906,228.443 283.433,228.401 283.433 C 228.360 283.433,228.269 283.583,228.200 283.766 M28.410 320.890 C 29.910 320.938,32.365 320.938,33.866 320.890 C 35.366 320.843,34.138 320.804,31.138 320.804 C 28.137 320.804,26.910 320.843,28.410 320.890 M83.433 320.881 C 90.764 321.068,97.610 321.074,97.497 320.892 C 97.429 320.782,93.578 320.718,88.940 320.749 C 84.301 320.780,81.823 320.839,83.433 320.881 M118.483 320.890 C 119.756 320.939,121.912 320.939,123.273 320.890 C 124.635 320.842,123.593 320.802,120.958 320.802 C 118.323 320.802,117.210 320.841,118.483 320.890 M296.292 320.891 C 299.046 320.935,303.477 320.934,306.138 320.891 C 308.800 320.848,306.547 320.812,301.131 320.812 C 295.715 320.812,293.537 320.848,296.292 320.891 M338.057 320.889 C 338.899 320.941,340.276 320.941,341.118 320.889 C 341.959 320.836,341.271 320.793,339.587 320.793 C 337.904 320.793,337.216 320.836,338.057 320.889 M233.134 323.703 C 233.134 323.749,233.523 324.138,233.999 324.568 L 234.864 325.349 234.082 324.484 C 233.353 323.678,233.134 323.497,233.134 323.703 M39.975 332.333 C 40.957 332.384,42.633 332.384,43.701 332.334 C 44.769 332.283,43.965 332.241,41.916 332.241 C 39.867 332.240,38.993 332.282,39.975 332.333 M130.195 332.333 C 131.176 332.384,132.853 332.384,133.920 332.334 C 134.988 332.283,134.185 332.241,132.136 332.241 C 130.086 332.240,129.213 332.282,130.195 332.333 M305.456 332.333 C 306.371 332.385,307.868 332.385,308.782 332.333 C 309.697 332.281,308.949 332.238,307.119 332.238 C 305.289 332.238,304.541 332.281,305.456 332.333 M350.820 332.333 C 351.802 332.384,353.478 332.384,354.546 332.334 C 355.614 332.283,354.810 332.241,352.761 332.241 C 350.712 332.240,349.838 332.282,350.820 332.333 M140.912 360.213 C 140.912 372.362,140.945 377.371,140.985 371.344 C 141.024 365.317,141.024 355.377,140.985 349.255 C 140.945 343.133,140.912 348.064,140.912 360.213 M63.201 360.213 C 63.201 371.776,63.233 376.468,63.273 370.639 C 63.313 364.810,63.313 355.349,63.273 349.614 C 63.233 343.880,63.201 348.649,63.201 360.213 M187.292 342.980 C 188.939 343.026,191.633 343.026,193.280 342.980 C 194.927 342.933,193.580 342.895,190.286 342.895 C 186.993 342.895,185.645 342.933,187.292 342.980 M230.140 370.125 C 231.786 370.172,234.481 370.172,236.128 370.125 C 237.774 370.079,236.427 370.041,233.134 370.041 C 229.840 370.041,228.493 370.079,230.140 370.125 M85.096 384.231 C 87.036 384.276,90.210 384.276,92.149 384.231 C 94.088 384.185,92.502 384.148,88.623 384.148 C 84.744 384.148,83.157 384.185,85.096 384.231 M39.998 388.222 C 40.992 388.273,42.549 388.273,43.458 388.221 C 44.366 388.169,43.553 388.127,41.650 388.127 C 39.747 388.128,39.004 388.170,39.998 388.222 M130.217 388.222 C 131.211 388.273,132.768 388.273,133.677 388.221 C 134.586 388.169,133.772 388.127,131.870 388.127 C 129.967 388.128,129.223 388.170,130.217 388.222 M350.843 388.222 C 351.837 388.273,353.394 388.273,354.302 388.221 C 355.211 388.169,354.398 388.127,352.495 388.127 C 350.592 388.128,349.849 388.170,350.843 388.222 M328.211 392.415 C 328.214 393.001,328.268 393.209,328.332 392.878 C 328.396 392.547,328.393 392.068,328.327 391.813 C 328.260 391.559,328.208 391.830,328.211 392.415 M315.697 393.347 C 315.697 393.859,315.752 394.069,315.819 393.812 C 315.886 393.556,315.886 393.137,315.819 392.881 C 315.752 392.625,315.697 392.834,315.697 393.347 M277.961 395.808 L 277.179 396.673 278.044 395.892 C 278.850 395.163,279.031 394.943,278.826 394.943 C 278.780 394.943,278.391 395.333,277.961 395.808 M212.772 465.469 C 212.772 501.989,212.803 516.929,212.841 498.669 C 212.879 480.409,212.879 450.529,212.841 432.269 C 212.803 414.009,212.772 428.949,212.772 465.469 M228.208 465.868 C 228.208 502.462,228.239 517.392,228.277 499.047 C 228.315 480.702,228.315 450.762,228.277 432.514 C 228.239 414.265,228.208 429.275,228.208 465.868 M176.913 400.725 C 177.389 400.784,178.167 400.784,178.643 400.725 C 179.118 400.666,178.729 400.617,177.778 400.617 C 176.826 400.617,176.437 400.666,176.913 400.725 M263.677 400.725 C 264.156 400.784,264.874 400.783,265.274 400.722 C 265.674 400.662,265.283 400.613,264.405 400.615 C 263.526 400.616,263.199 400.666,263.677 400.725 M349.903 442.504 C 350.234 442.567,350.713 442.565,350.968 442.498 C 351.222 442.432,350.951 442.380,350.366 442.382 C 349.780 442.385,349.572 442.440,349.903 442.504 M43.716 476.572 C 44.121 476.633,44.720 476.631,45.047 476.568 C 45.374 476.505,45.043 476.455,44.311 476.457 C 43.580 476.459,43.312 476.510,43.716 476.572 " stroke="none" fill="#848484" fill-rule="evenodd"></path></g></svg>